PathFileType	4	(X/Y/Z)	./resultDataOpenSim/trcMotMarkerGrf/sub10/qtm-05-08.trc
DataRate	CameraRate	NumFrames	NumMarkers	Units	OrigDataRate	OrigDataStartFrame	OrigNumFrames
250.000000	250.000000	9	24	m	250.000000	331	529
Frame#	Time	L.Toe.Tip			R.Toe.Tip			L.Ankle.Lat			R.Ankle.Lat			L.Ankle.Med			R.Ankle.Med			L.Heel			R.Heel			L.Knee.Lat			R.Knee.Lat			L.Knee.Med			R.Knee.Med			L.Thigh.Upper			R.Thigh.Upper			L.ASIS			R.ASIS			V.Sacral			L.Acromium			R.Acromium			C7			L.Elbow			R.Elbow			L.Wrist.Lat			R.Wrist.Lat
		X1	Y1	Z1	X2	Y2	Z2	X3	Y3	Z3	X4	Y4	Z4	X5	Y5	Z5	X6	Y6	Z6	X7	Y7	Z7	X8	Y8	Z8	X9	Y9	Z9	X10	Y10	Z10	X11	Y11	Z11	X12	Y12	Z12	X13	Y13	Z13	X14	Y14	Z14	X15	Y15	Z15	X16	Y16	Z16	X17	Y17	Z17	X18	Y18	Z18	X19	Y19	Z19	X20	Y20	Z20	X21	Y21	Z21	X22	Y22	Z22	X23	Y23	Z23	X24	Y24	Z24

331	1.32	0.037556991	-0.057141043	-0.092351271	0.90469874	0.043382539	0.023765042	-0.059658073	0.035319485	-0.12316842	0.76590368	0.053609817	0.065612893	-0.038500542	0.051625303	-0.043622029	0.77999239	0.081541885	-0.018437419	-0.12489925	0.046182485	-0.079837147	0.71454148	0.027704903	0.021254673	0.16143952	0.35415705	-0.15880299	0.7110378	0.4406026	0.088875377	0.17587485	0.32170016	-0.038989326	0.71435195	0.45239654	-0.038143869	0.31874698	0.71160635	-0.20441544	0.46794731	0.74713675	0.16066225	0.42598273	0.79386657	-0.16634745	0.49762817	0.81980492	0.054495762	0.27384348	0.83399451	0.016126162	0.46572658	1.28062	-0.20547566	0.46297763	1.2775291	0.11437017	0.37676242	1.3102848	-0.051104164	0.57573654	0.95468656	-0.24179932	0.26063099	0.99669364	0.14038001	0.80726786	0.98641841	-0.14545876	0.20720074	0.81902443	0.29257623
332	1.324	0.038413642	-0.057059108	-0.092446718	0.90529924	0.042726445	0.023872506	-0.056383523	0.0376504	-0.12452992	0.76602277	0.05400453	0.06531637	-0.034983861	0.053601532	-0.045054396	0.78037392	0.081570214	-0.018732848	-0.12115706	0.049741199	-0.081284072	0.7148627	0.027939112	0.02115052	0.16766612	0.3544422	-0.15911524	0.71901689	0.44278395	0.088980315	0.18162687	0.32179331	-0.039388021	0.72096616	0.4544301	-0.03886611	0.32637996	0.7110927	-0.20444644	0.4740355	0.74844861	0.16155377	0.43320546	0.79320082	-0.16564172	0.50433236	0.82061111	0.055447076	0.28038519	0.8346289	0.015486754	0.47359718	1.2809518	-0.20478415	0.47045768	1.2776527	0.11496336	0.38431203	1.3105488	-0.050414643	0.58159085	0.95375439	-0.24150715	0.26948607	0.99562245	0.14027647	0.81293616	0.98478272	-0.14471956	0.21430803	0.8191912	0.2935348
333	1.328	0.039352076	-0.056982344	-0.092552338	0.90606721	0.042164781	0.024095301	-0.052868497	0.039988255	-0.12594686	0.76635303	0.054302315	0.065045941	-0.031179336	0.055560473	-0.046496108	0.78100116	0.081542193	-0.019020838	-0.11710212	0.053391995	-0.082634394	0.71525638	0.028193414	0.021056852	0.17403032	0.35469071	-0.15943491	0.72673217	0.44477156	0.089009932	0.18761494	0.32183157	-0.039826224	0.72745104	0.45638172	-0.039553286	0.3340911	0.71053999	-0.20441921	0.48005719	0.74988857	0.16243293	0.44045274	0.79261681	-0.16492438	0.51113576	0.82165348	0.056512347	0.28705003	0.83524985	0.014714755	0.48154331	1.2813799	-0.20405161	0.47791447	1.2779104	0.11559355	0.39187214	1.3109368	-0.04975325	0.58741599	0.95289719	-0.2412754	0.27841096	0.99467165	0.14023954	0.81857991	0.98299339	-0.14402089	0.22149668	0.81935201	0.29444326
334	1.332	0.04038788	-0.05690996	-0.092669909	0.90701054	0.041609589	0.024369113	-0.049075589	0.042316748	-0.1274417	0.76695198	0.054493053	0.064802475	-0.027069488	0.05747247	-0.047961168	0.78185913	0.081454343	-0.019310533	-0.11273484	0.057103159	-0.083880061	0.71572142	0.028459263	0.020973393	0.18062398	0.35492345	-0.15976789	0.73388341	0.44645817	0.088855531	0.19386355	0.32181057	-0.040282104	0.73373832	0.45820333	-0.04018729	0.34187047	0.70994372	-0.20431747	0.48604635	0.75145577	0.16327771	0.44772013	0.79211623	-0.16419644	0.51801561	0.82291145	0.057661552	0.29380271	0.83586659	0.01383473	0.48955978	1.2819006	-0.20327324	0.48532979	1.2782985	0.11626118	0.39942408	1.3114368	-0.049102579	0.59320597	0.95213177	-0.24109748	0.28729247	0.99391549	0.14040515	0.82420999	0.98106514	-0.14336307	0.22886902	0.81950872	0.29533267
335	1.336	0.041532823	-0.056852251	-0.092814035	0.90804789	0.041036003	0.024629705	-0.045001509	0.044633117	-0.12897852	0.76774318	0.054586983	0.064581403	-0.022640865	0.059320372	-0.049456631	0.78284068	0.081305658	-0.019604451	-0.10803644	0.060846767	-0.085028696	0.71621977	0.028711196	0.020901669	0.18757095	0.35517072	-0.1600922	0.74040776	0.44778624	0.088527654	0.20039058	0.32172999	-0.04074708	0.73977346	0.45985402	-0.040745144	0.34971113	0.70931539	-0.20415404	0.49203074	0.75315548	0.16406921	0.45500322	0.79170077	-0.16345892	0.52495056	0.82436947	0.058873694	0.30059326	0.83649993	0.012849822	0.49764274	1.2825123	-0.20244819	0.49269721	1.2788131	0.11696018	0.40695082	1.3120352	-0.048452754	0.59895083	0.95147344	-0.24096119	0.29611407	0.99336186	0.14074624	0.82983201	0.97901496	-0.14275863	0.23649897	0.81966544	0.29622729
336	1.34	0.042804799	-0.056830368	-0.092994968	0.9090435	0.040505543	0.024809622	-0.04067315	0.046936458	-0.13046705	0.76857239	0.054610936	0.064374524	-0.017873851	0.061088219	-0.05098424	0.78380852	0.081100982	-0.019903778	-0.10295541	0.064608474	-0.08608964	0.71669538	0.028925137	0.020846737	0.19493094	0.35543994	-0.16040729	0.74641018	0.44874638	0.088105921	0.20720934	0.32158793	-0.041238753	0.74551454	0.46129228	-0.041219171	0.35760623	0.70866386	-0.20393921	0.49802638	0.75497744	0.16479006	0.46229756	0.79137211	-0.16271282	0.53191901	0.82600702	0.060124365	0.3073931	0.83717271	0.011756019	0.50577878	1.2832144	-0.20158085	0.5000096	1.2794504	0.11768443	0.41443609	1.3127216	-0.047799339	0.60463959	0.95092964	-0.24085978	0.30491178	0.99298281	0.14117179	0.83543072	0.97684102	-0.14220966	0.24437483	0.81981758	0.29712822
337	1.344	0.044232497	-0.056869722	-0.093205939	0.90987608	0.040089566	0.024859581	-0.036092858	0.049207812	-0.13185096	0.76929884	0.05460062	0.064171122	-0.012734804	0.062755368	-0.052544866	0.78465113	0.080851709	-0.020210366	-0.097442154	0.068377637	-0.087061433	0.71709834	0.029087781	0.020812097	0.202648	0.35570602	-0.16075297	0.75202416	0.44935238	0.0876605	0.21433585	0.32137811	-0.041799555	0.75093405	0.46247899	-0.041623159	0.36554896	0.70799235	-0.20365566	0.50403368	0.75688806	0.16542239	0.46959871	0.79113191	-0.16195917	0.53890037	0.82779172	0.061385977	0.3142091	0.83790177	0.010558431	0.5139485	1.2840027	-0.20067565	0.50724735	1.2802037	0.11843033	0.42187274	1.3134906	-0.047142911	0.61026417	0.95050573	-0.24079785	0.31370265	0.99275116	0.141629	0.84097194	0.9745211	-0.14169273	0.25245201	0.8199553	0.29802632
338	1.348	0.045829787	-0.056994164	-0.093433609	0.91049803	0.039804365	0.024785246	-0.031220226	0.051407036	-0.13316045	0.76985347	0.054588924	0.063962312	-0.0071940942	0.064301279	-0.054138374	0.78530877	0.080572869	-0.020518008	-0.09147193	0.072139469	-0.087937498	0.71740694	0.029196479	0.020793875	0.21061557	0.35593991	-0.1611826	0.7573465	0.44962978	0.087219065	0.22179151	0.32109424	-0.04246786	0.75602184	0.46338485	-0.041984448	0.37353282	0.70730655	-0.2032736	0.51003727	0.75884481	0.16595062	0.47690224	0.79098186	-0.16119897	0.5458871	0.82968608	0.062645804	0.32107262	0.83870144	0.0092784534	0.52213516	1.2848693	-0.19973511	0.51438524	1.2810623	0.119193	0.42926719	1.3143373	-0.046490257	0.61582125	0.95020955	-0.2407783	0.32247511	0.99264339	0.14210553	0.84642344	0.97203618	-0.14118221	0.26070879	0.82007392	0.29892005
339	1.352	0.047568569	-0.057222538	-0.093668845	0.91094352	0.039612429	0.024648151	-0.026011608	0.053488822	-0.13446198	0.77022835	0.054597727	0.063755054	-0.001246864	0.065713662	-0.055750704	0.7857813	0.080277864	-0.020809791	-0.085044718	0.075873187	-0.088728155	0.71763239	0.0292562	0.020780615	0.21876455	0.35612458	-0.16172207	0.76243549	0.44961976	0.086777508	0.22958213	0.32072615	-0.04323289	0.760788	0.46399777	-0.042330427	0.38154714	0.70662065	-0.20280035	0.51601721	0.76081727	0.16637136	0.48420372	0.79092363	-0.16043325	0.55287718	0.83165779	0.0639033	0.32801158	0.8395975	0.007961774	0.53032331	1.2858071	-0.19876275	0.52140847	1.2820152	0.11996321	0.43662936	1.3152549	-0.045855824	0.62131662	0.95005074	-0.24079843	0.33120506	0.99263768	0.14259965	0.85176913	0.96938592	-0.14067588	0.26915062	0.82017825	0.29981783
